<svg  enable-background="new 0 0 155 140" viewBox="0 0 155 140" xmlns="http://www.w3.org/2000/svg">
        <path d="M68 117l55-55 28-28a22 22 0 0 0 2-9c0-14-12-25-28-25H59a29 29 0 0 0-29 28v78a27 27 0 0 0 24 15 27 27 0 0 0 14-4z" fill="#e62c5a" opacity=".8" />
        <path d="M123 113V35a27 27 0 0 0-24-15 27 27 0 0 0-14 4L30 79 2 107a22 22 0 0 0-2 9c0 14 12 24 28 25h67a29 29 0 0 0 28-28z" fill="#0fabf6" opacity=".8" />
        <path d="M85 24L30 79v27a27 27 0 0 0 24 15 27 27 0 0 0 14-4l55-55V35a27 27 0 0 0-24-15 27 27 0 0 0-14 4z" fill="#501b8d" opacity=".5" />
</svg>